<?xml version="1.0" standalone="no"?>
<!DOCTYPE svg PUBLIC "-//W3C//DTD SVG 20010904//EN"
 "http://www.w3.org/TR/2001/REC-SVG-20010904/DTD/svg10.dtd">
<svg version="1.0" xmlns="http://www.w3.org/2000/svg"
 width="825.000000pt" height="646.000000pt" viewBox="0 0 825.000000 646.000000"
 preserveAspectRatio="xMidYMid meet">

<g transform="translate(0.000000,646.000000) scale(0.100000,-0.100000)"
fill="#000000" stroke="none">
<path d="M7200 6450 c245 -3 451 -9 459 -14 9 -6 12 -5 7 2 -3 5 0 13 6 15 7
3 -196 5 -452 4 l-465 -2 445 -5z"/>
<path d="M7720 6446 c0 -17 -42 -25 -144 -25 -43 -1 -82 -3 -86 -6 -5 -3 -177
-6 -382 -8 -205 -1 -339 -5 -298 -8 59 -4 40 -6 -90 -9 -91 -2 -139 -5 -107
-7 l57 -4 0 -759 c0 -714 -1 -759 -17 -763 -12 -3 -10 -5 7 -6 20 -1 22 -3 10
-11 -10 -7 10 -10 65 -10 306 -1 962 -23 1040 -35 17 -3 130 -8 253 -12 l222
-6 0 841 0 842 -265 0 c-219 0 -265 -2 -265 -14z"/>
<path d="M3607 6069 c7 -7 15 -10 18 -7 3 3 -2 9 -12 12 -14 6 -15 5 -6 -5z"/>
<path d="M3686 5991 c-3 -5 2 -8 11 -7 10 0 18 -5 18 -12 0 -7 20 -24 45 -38
25 -14 34 -17 20 -7 -14 10 -36 30 -50 45 -26 30 -35 34 -44 19z"/>
<path d="M3690 5920 c-8 -5 -12 -11 -10 -14 3 -2 14 2 24 10 22 15 10 19 -14
4z"/>
<path d="M3848 5870 c14 -17 16 -34 2 -25 -5 3 -10 2 -10 -3 0 -6 7 -13 16
-16 8 -3 12 -2 9 3 -3 5 1 11 9 13 10 2 6 9 -12 22 -15 11 -21 13 -14 6z"/>
<path d="M3888 5823 c7 -3 16 -2 19 1 4 3 -2 6 -13 5 -11 0 -14 -3 -6 -6z"/>
<path d="M3911 5776 c-15 -8 -20 -16 -12 -20 6 -4 11 -1 11 6 0 9 3 9 10 -2 7
-11 5 -17 -8 -22 -13 -5 -11 -7 9 -7 25 -1 49 15 49 33 0 6 -5 5 -12 -2 -18
-18 -31 -14 -25 8 3 11 4 20 4 20 -1 -1 -13 -7 -26 -14z"/>
<path d="M3871 5764 c0 -11 3 -14 6 -6 3 7 2 16 -1 19 -3 4 -6 -2 -5 -13z"/>
<path d="M4006 5704 c-9 -23 -7 -31 4 -14 18 29 26 -5 20 -95 -3 -49 -4 -1153
-2 -2453 2 -2068 4 -2363 17 -2368 15 -6 52 23 41 33 -11 11 15 31 34 26 22
-6 28 13 8 20 -7 2 -3 2 9 0 12 -2 30 5 40 15 10 11 30 27 45 37 15 9 25 22
21 28 -3 6 -1 7 6 3 6 -4 22 5 37 23 14 17 29 29 34 26 16 -10 32 23 21 43 -8
15 -4 24 16 46 14 15 28 24 32 21 3 -4 -4 -14 -16 -22 -28 -19 -32 -48 -5 -38
33 12 111 70 112 83 0 6 4 12 10 12 5 0 34 21 63 48 29 26 75 65 102 87 27 22
66 57 87 78 22 20 43 37 48 37 5 0 30 18 57 41 83 70 93 79 97 79 2 0 30 25
61 55 32 30 61 55 64 55 3 0 22 15 41 33 20 17 56 48 80 67 25 19 49 40 53 47
4 7 14 13 20 13 7 0 31 18 52 40 22 22 57 53 80 68 22 15 51 38 66 52 14 14
64 55 110 92 46 36 96 77 111 90 42 36 82 63 91 60 5 -1 6 2 3 7 -3 5 4 16 17
24 12 8 36 27 54 43 54 50 63 55 75 48 7 -4 8 -3 4 4 -5 8 0 12 13 12 12 0 21
5 21 11 0 5 -6 7 -12 4 -7 -4 5 9 27 29 22 19 45 35 50 35 6 1 3 -4 -5 -9 -11
-7 -12 -10 -2 -10 8 0 16 8 19 17 2 10 19 25 36 33 18 8 31 21 29 28 -1 8 1
11 6 8 12 -7 63 39 54 49 -4 5 -1 5 6 1 16 -9 44 12 35 27 -3 5 -2 8 3 4 13
-8 47 20 39 32 -3 6 0 9 7 6 12 -5 108 72 573 458 28 23 58 49 69 57 77 62
156 135 156 144 0 6 -28 34 -63 63 -214 178 -534 442 -622 513 -44 35 -82 67
-85 70 -3 3 -23 19 -45 36 -21 16 -59 48 -84 72 -25 23 -50 41 -56 40 -11 -3
-27 8 -77 55 -16 15 -33 27 -37 27 -14 0 -41 36 -34 45 5 4 1 6 -7 3 -9 -3
-24 0 -35 8 -10 8 -13 14 -6 14 7 0 10 4 6 10 -3 5 -11 7 -18 4 -7 -2 -22 5
-32 16 -19 20 -18 21 1 14 10 -4 16 -4 13 0 -4 4 -17 9 -29 11 -19 4 -56 29
-80 56 -3 3 -15 12 -28 21 -12 8 -40 32 -62 52 -21 20 -43 36 -49 36 -5 0 -11
4 -13 9 -1 4 -73 64 -158 133 -157 126 -208 169 -241 201 -11 9 -22 17 -25 17
-4 0 -16 9 -28 20 -56 53 -124 110 -131 110 -4 0 -17 10 -29 23 -12 12 -37 34
-56 48 -19 15 -53 43 -74 63 -41 37 -51 42 -59 29 -2 -5 -2 -2 -1 5 5 19 -7
42 -21 42 -7 0 -18 7 -25 15 -7 9 -19 14 -27 11 -7 -3 -13 -1 -13 4 0 5 -11
21 -25 36 -14 15 -25 24 -25 20 0 -3 -8 2 -18 12 -10 9 -42 37 -71 62 -29 25
-63 54 -75 65 -12 11 -40 33 -62 50 -21 16 -49 39 -61 50 -35 32 -52 45 -58
45 -5 0 -51 43 -122 113 -18 18 -33 27 -33 20 0 -6 6 -13 12 -15 7 -3 -5 -5
-27 -5 -22 0 -30 2 -17 4 21 4 21 6 -15 48 -21 25 -43 44 -49 45 -6 0 -19 9
-29 20 -22 24 -31 25 -39 4z m98 -89 c3 -9 0 -15 -9 -15 -8 0 -15 7 -15 15 0
8 4 15 9 15 5 0 11 -7 15 -15z m86 -65 c0 -5 -4 -10 -10 -10 -5 0 -10 5 -10
10 0 6 5 10 10 10 6 0 10 -4 10 -10z m80 -36 c0 -2 -7 -4 -15 -4 -8 0 -15 4
-15 10 0 5 7 7 15 4 8 -4 15 -8 15 -10z m70 -74 c0 -5 -4 -10 -10 -10 -5 0
-10 5 -10 10 0 6 5 10 10 10 6 0 10 -4 10 -10z m490 -4024 c0 -2 -7 -7 -16
-10 -8 -3 -12 -2 -9 4 6 10 25 14 25 6z m-300 -246 c-8 -6 -24 -15 -35 -21
-16 -8 -15 -6 4 10 13 12 28 21 35 21 6 0 4 -5 -4 -10z m-205 -160 c3 -5 2
-10 -4 -10 -5 0 -13 5 -16 10 -3 6 -2 10 4 10 5 0 13 -4 16 -10z m-66 -31 c-9
-5 -15 -4 -18 2 -2 6 3 15 10 20 9 5 15 4 18 -2 2 -6 -3 -15 -10 -20z"/>
<path d="M6386 4927 c3 -10 9 -15 12 -12 3 3 0 11 -7 18 -10 9 -11 8 -5 -6z"/>
<path d="M6425 4880 c3 -5 8 -10 11 -10 2 0 4 5 4 10 0 6 -5 10 -11 10 -5 0
-7 -4 -4 -10z"/>
<path d="M6462 4851 c-11 -6 -10 -10 0 -19 11 -8 14 -7 14 9 0 10 0 19 -1 19
0 0 -6 -4 -13 -9z"/>
<path d="M6538 4833 c7 -3 16 -2 19 1 4 3 -2 6 -13 5 -11 0 -14 -3 -6 -6z"/>
<path d="M6030 4076 c0 -2 7 -7 16 -10 8 -3 12 -2 9 4 -6 10 -25 14 -25 6z"/>
<path d="M3255 3800 c3 -5 8 -10 11 -10 2 0 4 5 4 10 0 6 -5 10 -11 10 -5 0
-7 -4 -4 -10z"/>
<path d="M3400 3720 c0 -5 5 -10 11 -10 5 0 7 5 4 10 -3 6 -8 10 -11 10 -2 0
-4 -4 -4 -10z"/>
<path d="M3485 3640 c-3 -5 -1 -10 4 -10 6 0 11 5 11 10 0 6 -2 10 -4 10 -3 0
-8 -4 -11 -10z"/>
<path d="M3642 3483 c6 -7 14 -13 18 -13 4 0 10 6 13 13 3 7 -4 12 -18 12 -18
0 -21 -3 -13 -12z"/>
<path d="M3694 3445 c36 -19 42 -19 26 0 -7 8 -22 15 -34 15 -18 0 -17 -2 8
-15z"/>
<path d="M3805 3410 c3 -5 8 -10 11 -10 2 0 4 5 4 10 0 6 -5 10 -11 10 -5 0
-7 -4 -4 -10z"/>
<path d="M3735 3400 c4 -6 11 -8 16 -5 14 9 11 15 -7 15 -8 0 -12 -5 -9 -10z"/>
<path d="M3989 3398 c-6 -20 -6 -39 0 -42 4 -3 7 6 7 20 0 20 -4 32 -7 22z"/>
<path d="M3770 3380 c19 -13 30 -13 30 0 0 6 -10 10 -22 10 -19 0 -20 -2 -8
-10z"/>
<path d="M3829 3359 c0 -2 -2 -11 -4 -20 -2 -12 2 -15 17 -11 11 2 16 8 11 11
-4 3 -11 10 -15 15 -5 5 -8 7 -9 5z"/>
<path d="M3889 3309 c12 -12 25 -19 28 -15 7 7 -23 36 -38 36 -7 0 -3 -9 10
-21z"/>
<path d="M3870 3296 c0 -11 39 -50 45 -44 3 2 -6 15 -20 28 -14 13 -25 20 -25
16z"/>
<path d="M3889 3194 c-11 -14 -11 -16 0 -10 8 5 17 3 22 -5 5 -8 9 -9 9 -4 0
6 -4 16 -9 23 -6 10 -11 9 -22 -4z"/>
<path d="M3952 3175 c-15 -8 -20 -15 -13 -20 13 -7 5 -25 -10 -25 -6 0 -8 4
-4 9 3 5 1 12 -5 16 -5 3 -10 2 -10 -4 0 -6 -10 -19 -22 -31 -18 -17 -19 -20
-5 -20 9 0 17 5 17 10 0 6 8 10 18 10 24 1 59 32 59 53 0 9 -1 17 -1 16 -1 -1
-12 -7 -24 -14z"/>
<path d="M3841 3151 l-23 -18 31 5 c18 2 31 10 31 18 0 19 -10 17 -39 -5z"/>
<path d="M3794 3113 c3 -3 17 -7 32 -9 14 -1 23 0 20 3 -3 4 -18 8 -32 9 -14
2 -24 0 -20 -3z"/>
<path d="M3737 3074 c-3 -5 1 -15 9 -22 16 -14 18 -5 5 17 -5 7 -11 9 -14 5z"/>
<path d="M3715 3030 c-3 -5 -2 -10 4 -10 5 0 13 5 16 10 3 6 2 10 -4 10 -5 0
-13 -4 -16 -10z"/>
<path d="M3585 2890 c-3 -5 -1 -10 4 -10 6 0 11 5 11 10 0 6 -2 10 -4 10 -3 0
-8 -4 -11 -10z"/>
<path d="M3258 2633 c7 -3 16 -2 19 1 4 3 -2 6 -13 5 -11 0 -14 -3 -6 -6z"/>
<path d="M5984 2349 c-19 -22 -19 -22 4 -8 12 8 22 17 22 21 0 12 -6 9 -26
-13z"/>
<path d="M7806 1673 c-61 -2 -115 -8 -122 -14 -8 -6 -185 -12 -483 -16 -259
-3 -471 -10 -471 -15 0 -4 -19 -8 -42 -8 -61 0 -28 -19 37 -22 l50 -1 -60 -7
c-33 -4 -50 -7 -37 -8 24 -2 31 -22 7 -22 -13 0 -15 -89 -15 -744 0 -735 0
-744 20 -749 11 -3 38 -3 60 0 22 3 46 1 53 -5 8 -7 150 -11 431 -11 425 -1
497 -5 493 -25 -1 -8 -383 -12 -1437 -16 l-1435 -5 1698 -3 1697 -2 0 840 0
840 -167 -2 c-93 -1 -217 -4 -277 -5z"/>
<path d="M6688 1633 c6 -2 18 -2 25 0 6 3 1 5 -13 5 -14 0 -19 -2 -12 -5z"/>
<path d="M6563 1603 c15 -2 39 -2 55 0 15 2 2 4 -28 4 -30 0 -43 -2 -27 -4z"/>
<path d="M6460 1589 c0 -5 5 -7 10 -4 6 3 10 8 10 11 0 2 -4 4 -10 4 -5 0 -10
-5 -10 -11z"/>
<path d="M4000 770 c0 -6 7 -10 15 -10 8 0 15 2 15 4 0 2 -7 6 -15 10 -8 3
-15 1 -15 -4z"/>
<path d="M3851 686 c-12 -14 -13 -98 -1 -91 4 2 5 17 3 32 -3 19 3 35 17 51
15 16 17 22 7 22 -8 0 -20 -6 -26 -14z"/>
<path d="M3900 696 c0 -9 30 -14 35 -6 4 6 -3 10 -14 10 -12 0 -21 -2 -21 -4z"/>
<path d="M3929 663 c-13 -16 -12 -17 4 -4 16 13 21 21 13 21 -2 0 -10 -8 -17
-17z"/>
<path d="M3880 644 c0 -14 3 -14 15 -4 8 7 15 14 15 16 0 2 -7 4 -15 4 -8 0
-15 -7 -15 -16z"/>
<path d="M3800 609 c0 -5 5 -7 10 -4 6 3 10 8 10 11 0 2 -4 4 -10 4 -5 0 -10
-5 -10 -11z"/>
<path d="M3745 520 c-3 -5 -1 -10 4 -10 6 0 11 5 11 10 0 6 -2 10 -4 10 -3 0
-8 -4 -11 -10z"/>
<path d="M3705 490 c-3 -5 -2 -10 4 -10 5 0 13 5 16 10 3 6 2 10 -4 10 -5 0
-13 -4 -16 -10z"/>
<path d="M3520 355 c0 -5 5 -17 10 -25 5 -8 10 -10 10 -5 0 6 -5 17 -10 25 -5
8 -10 11 -10 5z"/>
<path d="M902 3 c421 -2 1114 -2 1540 0 425 1 80 2 -767 2 -847 0 -1195 -1
-773 -2z"/>
</g>
</svg>
